<svg width="170" height="170" viewBox="0 0 170 170" fill="none" xmlns="http://www.w3.org/2000/svg">
<path d="M89.9609 6.40457C83.4807 7.76752 81.0134 8.99016 76.2842 13.2487C70.0837 18.832 64.2466 27.038 55.4654 42.7001C50.937 50.7744 49.382 53.697 45.9596 60.7277C45.0114 62.5806 43.945 64.7779 43.551 65.6084C43.1097 66.3864 41.9751 68.9305 40.9535 71.2302C38.792 76.1739 38.524 76.5104 37.4279 75.4516C33.0881 71.319 18.1276 73.0389 13.7561 78.1172C11.8855 80.3725 11.5708 82.559 12.7356 85.1735C14.713 89.4828 17.1625 90.5124 24.1526 89.9271C26.615 89.7557 28.7699 89.7183 28.9144 89.826C29.0564 89.9837 28.1262 90.5358 26.8991 91.0223C25.1622 91.6823 23.5513 91.8483 19.9063 91.6574C14.0144 91.3489 12.9002 91.5909 12.827 92.989C12.7538 94.3871 14.7489 96.4443 17.7215 98.0018C21.2329 99.7879 23.769 100.121 27.1719 99.1977C30.5275 98.2219 30.5249 98.2718 29.1069 102.403C28.222 104.961 28.0669 105.053 23.6946 107.277C12.1201 113.18 4.90763 118.009 2.99266 121.113C1.79218 123.003 1.78172 123.203 2.41564 125.439C2.74972 126.708 3.89079 128.821 4.92391 130.127C7.03747 132.791 8.46195 133.316 16.2698 134.326L21.1448 134.931L20.8519 140.524C20.2688 151.659 22.7621 159.5 27.8138 162.468C31.1649 164.446 37.1139 161.753 43.3536 155.421C47.6334 151.139 53.6598 143.143 54.4896 140.683C55.1435 138.715 55.2959 138.673 65.0093 140.583C80.0261 143.523 95.3323 147.629 106.883 151.738C110.274 152.967 116.121 155.076 119.908 156.376C123.693 157.726 129.738 159.895 133.375 161.187C137.946 162.828 140.86 163.582 143.007 163.694C147.351 163.922 148.802 162.996 151.45 158.328C154.877 152.149 154.963 148.599 151.907 127.61C151.064 121.708 149.325 111.904 148.838 109.725C148.583 108.861 148.835 108.824 154.06 109.448C158.341 109.922 159.791 109.948 160.918 109.457L162.306 108.778L160.826 107.399C159.869 106.548 157.038 105.148 153.404 103.806C148.492 101.997 147.369 101.437 147.072 100.42C146.425 98.4336 146.651 97.9447 148.711 96.851C157.884 91.8739 162.849 86.9268 163.082 82.4829C163.155 81.0848 162.879 80.6197 161.279 79.6347C160.261 78.9806 159.039 78.4159 158.59 78.3923C157.292 78.3244 157.683 77.5438 160.363 75.1306C163.516 72.2916 165.754 68.7538 166.583 65.3425C167.418 61.8314 166.884 60.5517 164.009 59.0493C162.106 58.0985 161.163 57.9489 158.501 58.1099C154.383 58.3449 146.092 59.8633 141.514 61.2258L138.054 62.2963L137.67 61.0245C137.407 60.3097 137.017 59.1378 136.76 58.3232C136.499 57.5585 135.721 55.2146 135.079 53.1282C132.68 45.3921 127.737 33.6675 125.457 30.3438C124.855 29.411 124.351 28.5334 124.361 28.3337C124.395 27.6846 120.105 21.6519 117.132 18.1917C113.454 13.8434 109.758 10.796 105.863 8.68937C99.6288 5.35876 96.7958 4.96005 89.9609 6.40457ZM101.311 17.213C108.063 20.2202 115.468 28.9194 120.977 40.3732C124.14 46.8975 129.913 63.8226 129.264 64.7399C129.101 64.9817 127.871 65.5182 126.549 65.8996C125.225 66.3309 121.607 67.5433 118.495 68.6321C112.581 70.6755 110.744 71.3304 97.5816 75.9984C93.0909 77.6157 88.0404 79.404 86.3587 79.9669C84.6743 80.5796 81.6604 81.7235 79.666 82.5203C77.6716 83.3171 75.5773 84.1087 74.9703 84.2271C74.4106 84.398 72.3163 85.1896 70.3193 86.0363C68.2724 86.8804 66.5328 87.5904 66.433 87.5852C66.0835 87.5669 48.7647 95.1214 43.9403 97.3722C41.7331 98.4082 39.7913 99.1577 39.6993 99.0026C39.0842 98.3195 46.7211 78.6921 50.8054 70.4945C51.1994 69.6639 52.7123 66.5889 54.1674 63.661C57.5898 56.6303 66.1477 41.4071 69.3473 36.718C70.7054 34.6862 72.011 32.7018 72.1817 32.3102C72.5783 31.4297 76.9104 26.1491 79.7741 23.0946C82.4249 20.2794 86.2164 17.6742 89.2724 16.6826C92.5334 15.6017 98.1783 15.8473 101.311 17.213ZM155.799 68.583C155.786 68.8326 154.026 70.8934 151.898 73.2854C147.965 77.6356 147.087 78.1404 143.687 78.0625C142.186 78.034 141.797 77.8133 141.834 77.1143C141.857 76.6649 141.581 75.2485 141.194 74.0266C140.858 72.8073 140.663 71.7457 140.716 71.6984C140.818 71.6537 143.617 70.7989 146.972 69.823C152.716 68.1712 155.844 67.7341 155.799 68.583ZM133.02 77.1533C134.867 84.9106 135.285 86.4846 135.543 87.2992C135.934 88.4212 135.333 88.4398 134.087 87.3731C133.369 86.7347 133.203 86.0752 133.395 84.3328C133.628 81.7915 132.75 79.4424 131.065 78.1525C129.953 77.3933 129.651 77.4275 125.877 78.732C120.879 80.473 120.672 80.6123 121.847 82.0758C122.412 82.7562 123.669 85.5258 124.729 88.2349C125.786 90.994 126.719 93.2459 126.769 93.2485C127.418 93.2825 129.531 92.1414 129.552 91.742C129.565 91.4923 128.784 89.1983 127.764 86.6915C126.796 84.1374 126.054 82.0458 126.159 81.9511C126.262 81.9064 126.879 81.5883 127.547 81.2728C128.624 80.7784 128.871 80.8414 129.428 81.6717C130.309 83.0196 130.091 84.31 128.925 84.5994C128.368 84.7204 127.9 85.0464 127.887 85.296C127.874 85.5457 129.054 86.9093 130.531 88.3385C133.105 90.8265 133.299 90.9368 134.581 90.3531C135.864 89.7694 135.961 89.8245 136.429 91.4012C137.195 93.9947 137.016 94.5361 135.122 95.3382C132.87 96.2717 131.987 97.8276 132.356 100.35C132.632 102.718 135.093 105.45 137.797 106.393C138.877 106.8 139.755 107.247 139.747 107.397C139.739 107.546 140.355 111.083 141.137 115.28C143.266 127.208 145.749 145.763 145.587 148.859C145.482 150.856 145.172 151.991 144.429 152.804L143.47 153.905L138.35 152.235C135.543 151.337 131.265 149.861 128.81 148.931C101.989 139.065 88.336 134.946 71.6346 131.668C62.7149 129.899 44.8915 127.013 41.7458 126.848C39.851 126.698 39.851 126.698 41.1359 126.065C42.1107 125.615 42.3866 125.129 42.3442 124.025C42.2572 122.819 42.5225 122.533 43.8469 122.101C45.1713 121.67 45.4682 121.735 46.0204 122.666C46.6224 123.598 46.8694 123.661 48.496 123.196L50.3223 122.741L46.9547 118.208C45.083 115.707 43.1192 113.051 42.5593 112.27L41.5787 110.917L38.867 112.027C36.2051 113.139 36.1526 113.187 37.1094 114.038C37.8769 114.679 38.1611 115.945 38.4669 119.666C38.6305 122.279 38.894 124.896 38.9651 125.45C39.165 126.412 38.9627 126.452 35.3755 126.114L31.5911 125.715L31.9718 124.183C32.2186 123.295 32.9773 120.28 33.7281 117.416L35.1012 112.23L39.9807 109.882C54.3169 102.872 75.7034 94.129 96.2652 86.7943C98.6616 85.9685 101.878 84.7851 103.41 84.2144C104.939 83.6937 109.427 82.1263 113.353 80.7798C117.279 79.4332 122.432 77.6002 124.828 76.7744C128.809 75.3306 131.151 74.6021 132.055 74.5493C132.257 74.5098 132.693 75.7343 133.02 77.1533ZM144.857 81.5284C143.68 83.9202 143.578 83.9649 143.06 82.3856C142.329 80.0942 142.557 79.5554 144.205 79.6417L145.703 79.7202L144.857 81.5284ZM154.733 82.2459C155.719 82.5479 156.547 82.9918 156.536 83.1915C156.513 83.6409 145.929 89.7457 145.28 89.7117C144.73 89.683 143.76 85.2762 144.19 84.6979C144.303 84.4535 145.318 84.2062 146.427 84.064C147.533 83.9717 149.117 83.3537 149.903 82.6939C151.574 81.3795 152.076 81.3557 154.733 82.2459ZM37.8228 78.4263C37.5813 79.2148 37.0613 80.5394 36.6673 81.3699C36.0422 82.7892 35.7847 82.9259 34.4996 82.6083C33.7085 82.4166 30.802 82.4647 28.0322 82.7702C22.293 83.3709 18.3405 83.3141 18.3798 82.5651C18.4111 81.966 21.9215 79.9468 24.9355 78.8029C27.6946 77.7457 32.7952 76.9113 35.8436 77.0209C38.193 77.0939 38.193 77.0939 37.8228 78.4263ZM43.9724 119.704C44.5271 120.585 44.5245 120.635 43.9541 120.054C43.5704 119.733 42.887 119.397 42.4376 119.374C41.6886 119.335 41.0576 118 41.1413 116.402C41.1726 115.803 42.3056 117.114 43.9724 119.704ZM23.7956 121.602L23.0737 124.869L19.9806 124.656C18.3329 124.57 16.4958 124.274 16.007 124.048C15.1265 123.651 15.2342 123.507 16.8423 122.439C19.2832 120.765 24.2335 118.02 24.4254 118.18C24.5226 118.235 24.2419 119.773 23.7956 121.602ZM41.0599 137.076C45.8324 137.726 50.1082 138.301 50.5077 138.322C50.9045 138.393 50.5866 138.726 49.7143 139.131C47.7646 140.031 44.7482 142.176 38.5817 147.11C35.865 149.271 32.9985 151.424 32.2208 151.934C30.8229 152.812 30.773 152.809 30.3207 151.885C29.2401 149.575 28.9487 140.798 29.8334 137.289C30.3296 135.463 29.4755 135.518 41.0599 137.076Z" fill="black"/>
<path d="M102.76 40.2202C100.571 41.858 100.322 44.6989 102.189 46.3487C106.402 50.0241 111.712 44.2439 107.653 40.4765C106.841 39.733 105.774 39.0763 105.274 39.0501C104.775 39.024 103.645 39.5656 102.76 40.2202Z" fill="black"/>
<path d="M76.6701 42.2085C73.9824 44.7714 75.5629 49.0099 79.2079 49.2008C81.7045 49.3315 83.2809 47.912 83.409 45.4654C83.5999 41.8204 79.2554 39.6902 76.6701 42.2085Z" fill="black"/>
<path d="M97.7754 53.1773C96.966 53.3351 93.5236 54.0561 90.1811 54.7823C86.8385 55.5085 83.4986 56.1847 82.7444 56.2453C81.8877 56.3507 81.3149 56.7713 81.2888 57.2706C81.2548 57.9197 83.6394 62.1002 87.4856 68.0094C87.901 68.6821 88.524 69.2154 88.8735 69.2337C89.4727 69.2651 94.3595 64.8646 100.901 58.498C105.231 54.2186 103.898 51.9458 97.7754 53.1773ZM96.9568 58.2914C95.7482 59.3797 93.7962 61.2802 92.5298 62.5157C91.2609 63.8011 90.0076 64.7869 89.708 64.7712C88.9091 64.7294 86.0275 59.5215 86.5504 59.0983C86.7632 58.8591 89.0493 58.2278 91.5352 57.607C94.071 56.9887 96.6567 56.3731 97.3688 56.1601C99.295 55.7102 99.2242 56.107 96.9568 58.2914Z" fill="black"/>
<path d="M116.018 82.4715C114.486 83.0421 112.547 83.7417 111.782 84.002C110.356 84.478 110.356 84.478 111.247 85.6262C111.767 86.2042 113.029 88.8739 114.047 91.4306C115.157 94.1424 116.295 96.3049 116.787 96.4808C117.278 96.6568 118.897 96.341 120.379 95.7677C121.911 95.197 123.545 94.5817 124.052 94.458C124.969 94.1556 125.237 92.8678 124.598 91.6828C124.277 91.1152 123.673 91.1837 121.371 92.1146L118.61 93.2217L117.897 91.5321C117.229 89.945 117.232 89.8951 118.37 90.1549C118.961 90.3361 120.222 90.1518 121.095 89.7469C122.634 89.0265 122.687 88.9791 121.951 87.7389C121.081 86.1913 121.375 86.3069 119.131 87.0906C116.734 87.9164 116.385 87.8981 116.145 86.7339C115.988 85.9246 116.458 85.5487 118.599 84.8097C121.868 83.5789 121.813 83.6762 120.777 82.4203C119.744 81.1145 119.542 81.1539 116.018 82.4715Z" fill="black"/>
<path d="M102.993 87.397C100.176 88.6013 99.1434 89.1981 99.7321 89.4292C100.513 89.8206 104.633 99.0988 104.565 100.397C104.508 101.495 105.399 101.692 107.038 100.977L108.578 100.257L107.19 97.1298C106.43 95.3877 105.549 93.0884 105.204 92.019C104.654 90.0876 104.657 90.0376 105.981 89.6063C108.528 88.7883 109.679 91.6525 107.173 92.6728L105.843 93.204L107.136 94.3232C108.43 95.4423 108.479 95.4449 110.174 94.6325C112.586 93.5071 112.844 92.419 111.319 89.0346C109.712 85.2955 108.671 85.0908 102.993 87.397Z" fill="black"/>
<path d="M94.1139 90.587C91.6149 91.4575 89.9387 92.8717 89.8681 94.2199C89.753 96.4169 92.6798 103.63 93.9861 104.499C95.5815 105.584 98.9267 104.808 101.081 102.868C102.815 101.307 102.839 100.857 101.129 96.2116C99.0728 90.5463 97.6324 89.3693 94.1139 90.587ZM96.6614 94.5256C96.785 95.0328 97.2637 96.4097 97.7502 97.6368C98.7652 100.243 98.7707 101.095 97.7512 101.442C96.3768 101.871 95.7617 101.188 94.5284 97.9688C93.6501 95.6196 93.5 94.6604 93.9256 94.182C94.7742 93.2752 96.4141 93.5113 96.6614 94.5256Z" fill="black"/>
<path d="M80.2529 96.1697C78.6185 96.7851 78.5634 96.8823 79.3808 97.5259C80.0038 98.0592 84.1636 107.54 84.1192 108.389C84.0878 108.988 87.6196 108.472 89.6692 107.578C92.2311 106.46 92.662 105.882 91.8837 104.489C91.5183 103.819 91.1661 103.851 89.2821 104.453C88.0602 104.84 86.9486 105.032 86.762 104.772C86.5727 104.562 85.6839 102.412 84.8134 99.9133C83.8903 97.4617 82.9438 95.4594 82.5916 95.4911C82.292 95.4754 81.2252 95.77 80.2529 96.1697Z" fill="black"/>
<path d="M74.1226 98.5023C72.5828 99.2227 70.6961 99.8749 69.9367 100.035C68.268 100.349 68.1472 100.743 69.3853 101.959C69.8611 102.435 70.9838 104.897 71.8543 107.396C73.9503 113.263 74.3919 113.437 80.5774 111.007C83.2866 109.947 83.4442 109.805 83.0024 108.681C82.4291 107.199 82.5789 107.206 79.1681 108.28C77.6887 108.803 76.4195 109.137 76.3748 109.034C76.3301 108.932 76.0172 108.215 75.7595 107.4C75.2756 106.123 75.2834 105.973 75.9668 106.309C76.7027 106.598 80.2685 105.433 80.2999 104.834C80.3077 104.684 80.0395 104.069 79.6662 103.549C79.0668 102.566 78.9669 102.561 76.87 103.403C75.0806 104.11 74.6785 104.139 74.3131 103.469C73.5822 102.129 73.9027 101.745 76.5015 100.88C77.9283 100.404 79.0556 99.9122 79.0634 99.7624C79.0896 99.2631 77.6463 97.1848 77.2942 97.2164C77.0918 97.2559 75.6597 97.8317 74.1226 98.5023Z" fill="black"/>
<path d="M65.6955 101.666C65.1306 101.937 64.6156 102.21 64.5131 102.255C64.408 102.349 64.7028 104.368 65.1765 106.796C65.5976 109.271 65.8399 111.337 65.7348 111.431C65.6297 111.526 64.7885 110.38 63.8657 108.88C60.6424 103.504 60.8343 103.664 58.5403 104.445L56.5985 105.195L57.9733 106.669C58.733 107.46 60.7019 110.016 62.3319 112.355C64.2852 115.211 65.568 116.53 66.0278 116.353C66.4351 116.224 67.3469 116.022 68.0039 115.906C68.6609 115.79 69.2389 115.27 69.2624 114.82C69.299 114.121 68.5083 105.318 68.116 102.293C67.9291 101.082 67.2379 100.895 65.6955 101.666Z" fill="black"/>
<path d="M54.0392 106.263L52.6519 106.941L53.8193 109.505C54.4452 110.94 54.8765 112.265 54.7635 112.509C54.6506 112.753 53.4494 111.789 52.022 110.363L49.4539 107.775L47.4542 108.671L45.4047 109.565L46.6401 110.832C47.3052 111.518 47.8625 112.348 47.8495 112.597C47.8338 112.897 48.6648 115.194 49.6351 117.698L51.447 122.299L52.9342 121.626C53.7541 121.268 54.4241 120.903 54.4293 120.803C54.4346 120.703 53.9559 119.326 53.3379 117.742C52.72 116.157 52.4358 114.89 52.6355 114.901C52.8852 114.914 53.7921 115.763 54.6885 116.811C56.9071 119.38 57.6877 119.772 59.2223 119.151C59.937 118.888 60.5597 118.47 60.5702 118.271C60.5832 118.021 59.8021 115.727 58.7871 113.12C57.822 110.516 56.7648 107.757 56.5071 106.943C55.939 105.361 55.939 105.361 54.0392 106.263Z" fill="black"/>
</svg>
